<?xml version="1.0" encoding="utf-8"?>
<!-- Generator: Adobe Illustrator 24.2.1, SVG Export Plug-In . SVG Version: 6.00 Build 0)  -->
<svg version="1.1" id="Layer_1" xmlns="http://www.w3.org/2000/svg" xmlns:xlink="http://www.w3.org/1999/xlink" x="0px" y="0px"
	 viewBox="0 0 290 117" style="enable-background:new 0 0 290 117;" xml:space="preserve">
<style type="text/css">
	.st0{fill:#9BC7E5;}
	.st1{fill:#0A597B;}
	.st2{fill:#08597B;}
	.st3{font-family:'ArialMT';}
	.st4{font-size:65.8609px;}
</style>
<g>
	<g>
		<path class="st0" d="M105.7,97.4c0.8,0.9,1.3,1.4,1.3,1.4l-2.1-2.5L81.4,64.8c6.2-1.8,11-4.5,14.3-7.8c3.7-3.9,5.6-8.6,5.6-14.2
			c0-5.3-1.5-9.8-4.6-13.3c-3.1-3.5-7.4-6.2-13.1-8c-3-0.9-6.5-1.6-10.7-2.1c-4.2-0.5-8.7-0.7-13.5-0.7H30.1
			c5.8,5.9,11.6,11.9,17.4,18V31h12.6c3.8,0,6.8,0.2,9.4,0.5c2.6,0.3,4.7,0.8,6.3,1.4c2.6,1,4.4,2.3,5.5,4c1.1,1.7,1.6,3.6,1.6,5.7
			c0,2.5-0.7,4.7-2,6.7c-1.3,1.9-3.8,3.5-7.3,4.6c-1.9,0.6-4.3,1.1-7,1.4c-0.4,0.1-0.9,0.1-1.4,0.2c6.9,7.4,17.3,18.2,26,27.1
			l15.6,16.5L105.7,97.4z"/>
		<polygon class="st0" points="30,42.8 30,42.8 30,42.8 30,87.4 47.6,98.3 47.6,72.2 75.5,90.4 		"/>
	</g>
	<g>
		<path class="st1" d="M106.8,99c0.8,0.9,1.3,1.4,1.3,1.4l-2.1-2.5L82.5,66.4c6.2-1.8,11-4.5,14.3-7.8c3.7-3.9,5.6-8.6,5.6-14.2
			c0-5.3-1.5-9.8-4.6-13.3c-3.1-3.5-7.4-6.2-13.1-8c-3-0.9-6.5-1.6-10.7-2.1c-4.2-0.5-8.7-0.7-13.5-0.7H31.3
			c5.8,5.9,11.6,11.9,17.4,18v-5.8h12.6c3.8,0,6.8,0.2,9.4,0.5c2.6,0.3,4.7,0.8,6.3,1.4c2.6,1,4.4,2.3,5.5,4
			c1.1,1.7,1.6,3.6,1.6,5.7c0,2.5-0.7,4.7-2,6.7c-1.3,1.9-3.8,3.5-7.3,4.6c-1.9,0.6-4.3,1.1-7,1.4c-0.4,0.1-0.9,0.1-1.4,0.2
			c6.9,7.4,17.3,18.2,26,27.1l15.6,16.5L106.8,99z"/>
		<polygon class="st1" points="31.2,44.4 31.2,44.4 31.2,44.4 31.2,89 48.8,99.9 48.8,73.8 76.7,92 		"/>
	</g>
	<path class="st1" d="M76.9,47.9H56.1c-0.3,0-0.5-0.2-0.5-0.4v-0.1c0-0.2,0.2-0.4,0.5-0.4h20.8c0.3,0,0.5,0.2,0.5,0.4v0.1
		C77.4,47.7,77.2,47.9,76.9,47.9z"/>
	<path class="st1" d="M76.9,45.3H56.1c-0.3,0-0.5-0.2-0.5-0.4v-0.1c0-0.2,0.2-0.4,0.5-0.4h20.8c0.3,0,0.5,0.2,0.5,0.4v0.1
		C77.4,45.1,77.2,45.3,76.9,45.3z"/>
	<path class="st1" d="M76.9,42.7H56.1c-0.3,0-0.5-0.2-0.5-0.4v-0.1c0-0.2,0.2-0.4,0.5-0.4h20.8c0.3,0,0.5,0.2,0.5,0.4v0.1
		C77.4,42.5,77.2,42.7,76.9,42.7z"/>
	<path class="st1" d="M76.9,40H56.1c-0.3,0-0.5-0.2-0.5-0.4v-0.1c0-0.2,0.2-0.4,0.5-0.4h20.8c0.3,0,0.5,0.2,0.5,0.4v0.1
		C77.4,39.9,77.2,40,76.9,40z"/>
</g>
<text transform="matrix(0.9721 0 0 1 104.9448 94.6143)" class="st2 st3 st4">ecme</text>
</svg>
